<svg width="26" height="26" viewBox="0 0 26 26" fill="none" xmlns="http://www.w3.org/2000/svg">
<path d="M25.9951 8.88672C25.5329 5.04766 22.0138 2.16328 17.9564 0.827734C19.8048 2.82852 21.1251 5.93633 21.1251 9.75H22.5521L16.631 16.3262C16.504 16.2957 16.3872 16.25 16.2501 16.25H13.8126V9.75H19.5001C19.5001 3.9 16.0013 0 13.0001 0C9.99896 0 6.50014 3.9 6.50014 9.75H12.1876V16.25H9.75014C9.61303 16.25 9.49623 16.2957 9.36928 16.3262L3.44818 9.75H4.87514C4.87514 5.93633 6.19545 2.82852 8.04389 0.827734C3.98646 2.16836 0.467323 5.05273 0.00521338 8.88672C-0.050646 9.34883 0.350526 9.75 0.817713 9.75H1.25951L8.20131 17.4637C8.16576 17.5957 8.12006 17.7277 8.12006 17.875V24.375C8.12006 25.2738 8.84623 26 9.74506 26H16.2451C17.1439 26 17.8701 25.2738 17.8701 24.375V17.875C17.8701 17.7277 17.8244 17.6008 17.7888 17.4637L24.7357 9.75H25.1775C25.6497 9.75 26.0509 9.35391 25.9951 8.88672Z" fill="#BCBDBE"/>
</svg>
